<?xml version="1.0" encoding="UTF-8" standalone="no"?>
<svg
   xmlns:dc="http://purl.org/dc/elements/1.1/"
   xmlns:cc="http://creativecommons.org/ns#"
   xmlns:rdf="http://www.w3.org/1999/02/22-rdf-syntax-ns#"
   xmlns:svg="http://www.w3.org/2000/svg"
   xmlns="http://www.w3.org/2000/svg"
   xmlns:sodipodi="http://sodipodi.sourceforge.net/DTD/sodipodi-0.dtd"
   xmlns:inkscape="http://www.inkscape.org/namespaces/inkscape"
   viewBox="0 0 1500 820"
   class="injected-svg svg-inject"
   style="height: 1000px;"
   version="1.1"
   id="svg20"
   sodipodi:docname="bg-contact.svg"
   inkscape:version="0.92.3 (2405546, 2018-03-11)">
  <metadata
     id="metadata26">
    <rdf:RDF>
      <cc:Work
         rdf:about="">
        <dc:format>image/svg+xml</dc:format>
        <dc:type
           rdf:resource="http://purl.org/dc/dcmitype/StillImage" />
        <dc:title></dc:title>
      </cc:Work>
    </rdf:RDF>
  </metadata>
  <defs
     id="defs24" />
  <sodipodi:namedview
     pagecolor="#ffffff"
     bordercolor="#666666"
     borderopacity="1"
     objecttolerance="10"
     gridtolerance="10"
     guidetolerance="10"
     inkscape:pageopacity="0"
     inkscape:pageshadow="2"
     inkscape:window-width="1321"
     inkscape:window-height="707"
     id="namedview22"
     showgrid="false"
     inkscape:zoom="0.3648671"
     inkscape:cx="753.24565"
     inkscape:cy="403.60804"
     inkscape:window-x="45"
     inkscape:window-y="27"
     inkscape:window-maximized="1"
     inkscape:current-layer="svg20" />
  <path
     class="fill-cyan"
     d="m 499.56101,848.07505 -18.47009,-18.83196 c -1.81849,-1.85139 -1.81849,-4.78475 0,-6.63614 l 18.47009,-18.83013 c 1.81667,-1.8514 4.69337,-1.8514 6.51004,0 l 18.47009,18.83013 c 1.81667,1.85139 1.81667,4.78475 0,6.63614 l -18.47009,18.83196 c -1.6668,1.8514 -4.69337,1.8514 -6.51004,0 z"
     style="fill:#008f8f;fill-opacity:1;stroke-width:1.82763577"
     id="path2"
     inkscape:connector-curvature="0" />
  <circle
     class="fill-pink"
     cx="1184.025"
     cy="85.335"
     r="9.723"
     style="fill:#003678;fill-opacity:1"
     id="circle4" />
  <path
     class="fill-blue"
     d="M 42.564 -16.417 C 43.206 -18.074 44.682 -19.262 46.438 -19.535 L 62.879 -22.089 C 64.634 -22.362 66.401 -21.677 67.515 -20.294 L 77.948 -7.333 C 79.062 -5.949 79.353 -4.076 78.712 -2.419 L 72.703 13.096 C 72.061 14.753 70.585 15.941 68.829 16.215 L 52.388 18.769 C 50.633 19.042 48.865 18.358 47.752 16.973 L 37.319 4.012 C 36.205 2.628 35.914 0.755 36.555 -0.902 L 42.564 -16.417 Z"
     style="fill:#f0ff67;fill-opacity:1"
     id="path8" />
  <path
     class="fill-purple"
     d="M 109.272 171.631 C 109.643 170.672 110.497 169.986 111.512 169.828 L 121.017 168.352 C 122.032 168.193 123.054 168.59 123.698 169.389 L 129.729 176.883 C 130.373 177.683 130.542 178.766 130.171 179.723 L 126.697 188.693 C 126.326 189.651 125.473 190.339 124.458 190.497 L 114.952 191.973 C 113.937 192.131 112.916 191.736 112.272 190.935 L 106.24 183.442 C 105.596 182.641 105.428 181.559 105.798 180.601 L 109.272 171.631 Z"
     style="fill:#00f7f7;fill-opacity:1"
     id="path12" />
  <path
     class="fill-purple"
     d="M 258.215 770.571 C 258.563 769.674 259.363 769.03 260.314 768.882 L 269.221 767.499 C 270.171 767.351 271.129 767.722 271.732 768.471 L 277.384 775.492 C 277.988 776.243 278.146 777.257 277.798 778.155 L 274.543 786.559 C 274.195 787.457 273.395 788.101 272.444 788.249 L 263.538 789.633 C 262.587 789.781 261.629 789.41 261.026 788.66 L 255.374 781.639 C 254.771 780.889 254.613 779.874 254.96 778.976 L 258.215 770.571 Z"
     style="fill:#0000af;fill-opacity:1"
     id="path14" />
  <circle
     class="fill-cyan"
     stroke-width="3"
     stroke-miterlimit="10"
     cx="730.584"
     cy="767.881"
     r="9.997"
     style="fill:#ffa800;fill-opacity:1"
     id="circle16" />
  <path
     inkscape:connector-curvature="0"
     class="fill-purple"
     d="m 1460.2658,762.0289 c 0.257,-0.661 0.846,-1.137 1.548,-1.246 l 6.57,-1.02 c 0.701,-0.109 1.407,0.165 1.852,0.717 l 4.169,5.179 c 0.445,0.553 0.561,1.302 0.305,1.964 l -2.401,6.199 c -0.256,0.662 -0.847,1.137 -1.548,1.247 l -6.569,1.021 c -0.701,0.108 -1.408,-0.165 -1.853,-0.718 l -4.169,-5.179 c -0.445,-0.553 -0.561,-1.302 -0.305,-1.964 z"
     id="path18-7"
     style="fill:#2e10ff;fill-opacity:1" />
  <path
     inkscape:connector-curvature="0"
     class="fill-purple"
     d="m 670.93732,52.1814 c 0.257,-0.661 0.846,-1.137 1.548,-1.246 l 6.57,-1.02 c 0.701,-0.109 1.407,0.165 1.852,0.717 l 4.169,5.179 c 0.445,0.553 0.561,1.302 0.305,1.964 l -2.401,6.199 c -0.256,0.662 -0.847,1.137 -1.548,1.247 l -6.569,1.021 c -0.701,0.108 -1.408,-0.165 -1.853,-0.718 l -4.169,-5.179 c -0.445,-0.553 -0.561,-1.302 -0.305,-1.964 z"
     id="path18-5"
     style="fill:#ffcd1e;fill-opacity:1" />
  <path
     inkscape:connector-curvature="0"
     class="fill-blue"
     d="m 937.56753,-21.676374 c 2.27788,-1.185607 5.0647,-1.00756 7.31436,0.467415 L 965.943,-7.3968954 c 2.24853,1.4739647 3.6153,4.0212218 3.58802,6.68069605 L 969.26734,24.20035 c -0.0283,2.660575 -1.44826,5.029801 -3.725,6.216418 L 944.21638,41.52023 c -2.27787,1.185608 -5.06469,1.007568 -7.31528,-0.466299 L 915.83998,27.24186 c -2.24852,-1.473957 -3.61737,-4.021125 -3.58708,-6.681804 l 0.26369,-24.9165436 c 0.0283,-2.6605825 1.44826,-5.0298004 3.725,-6.2164174 z"
     style="fill:#008f8f;fill-opacity:1;stroke-width:1.48463047"
     id="path8-3" />
</svg>
