<?xml version="1.0" encoding="UTF-8" standalone="no"?>
<svg
   xmlns:dc="http://purl.org/dc/elements/1.1/"
   xmlns:cc="http://creativecommons.org/ns#"
   xmlns:rdf="http://www.w3.org/1999/02/22-rdf-syntax-ns#"
   xmlns:svg="http://www.w3.org/2000/svg"
   xmlns="http://www.w3.org/2000/svg"
   xmlns:sodipodi="http://sodipodi.sourceforge.net/DTD/sodipodi-0.dtd"
   xmlns:inkscape="http://www.inkscape.org/namespaces/inkscape"
   viewBox="0 0 1500 820"
   class="injected-svg svg-inject"
   style="height: 1000px;"
   version="1.1"
   id="svg20"
   sodipodi:docname="bg.svg"
   inkscape:version="0.92.3 (2405546, 2018-03-11)">
  <metadata
     id="metadata26">
    <rdf:RDF>
      <cc:Work
         rdf:about="">
        <dc:format>image/svg+xml</dc:format>
        <dc:type
           rdf:resource="http://purl.org/dc/dcmitype/StillImage" />
      </cc:Work>
    </rdf:RDF>
  </metadata>
  <defs
     id="defs24" />
  <sodipodi:namedview
     pagecolor="#ffffff"
     bordercolor="#666666"
     borderopacity="1"
     objecttolerance="10"
     gridtolerance="10"
     guidetolerance="10"
     inkscape:pageopacity="0"
     inkscape:pageshadow="2"
     inkscape:window-width="1321"
     inkscape:window-height="707"
     id="namedview22"
     showgrid="false"
     inkscape:zoom="0.516"
     inkscape:cx="749.07913"
     inkscape:cy="453.22239"
     inkscape:window-x="45"
     inkscape:window-y="27"
     inkscape:window-maximized="1"
     inkscape:current-layer="svg20" />
  <path
     class="fill-cyan"
     d="m 499.56101,848.07505 -18.47009,-18.83196 c -1.81849,-1.85139 -1.81849,-4.78475 0,-6.63614 l 18.47009,-18.83013 c 1.81667,-1.8514 4.69337,-1.8514 6.51004,0 l 18.47009,18.83013 c 1.81667,1.85139 1.81667,4.78475 0,6.63614 l -18.47009,18.83196 c -1.6668,1.8514 -4.69337,1.8514 -6.51004,0 z"
     style="fill:#d40000;fill-opacity:1;stroke-width:1.82763577"
     id="path2"
     inkscape:connector-curvature="0" />
  <circle
     class="fill-pink"
     cx="1184.025"
     cy="85.335"
     r="9.723"
     style="fill:#e9afaf;fill-opacity:1"
     id="circle4" />
  <circle
     class="fill-yellow"
     stroke-width="3"
     stroke-miterlimit="10"
     cx="320.504"
     cy="209.51"
     r="12.587"
     style="fill:#ffe6d5;fill-opacity:1"
     id="circle6" />
  <path
     class="fill-blue"
     d="M 42.564 -16.417 C 43.206 -18.074 44.682 -19.262 46.438 -19.535 L 62.879 -22.089 C 64.634 -22.362 66.401 -21.677 67.515 -20.294 L 77.948 -7.333 C 79.062 -5.949 79.353 -4.076 78.712 -2.419 L 72.703 13.096 C 72.061 14.753 70.585 15.941 68.829 16.215 L 52.388 18.769 C 50.633 19.042 48.865 18.358 47.752 16.973 L 37.319 4.012 C 36.205 2.628 35.914 0.755 36.555 -0.902 L 42.564 -16.417 Z"
     style="fill:#ffb380;fill-opacity:1"
     id="path8" />
  <path
     class="fill-pink"
     d="M 1128.161 586.512 C 1128.462 585.735 1129.154 585.178 1129.977 585.05 L 1137.684 583.853 C 1138.506 583.725 1139.335 584.046 1139.857 584.695 L 1144.747 590.77 C 1145.269 591.419 1145.406 592.297 1145.105 593.073 L 1142.289 600.346 C 1141.988 601.123 1141.296 601.68 1140.473 601.808 L 1132.767 603.005 C 1131.944 603.133 1131.115 602.812 1130.593 602.163 L 1125.703 596.088 C 1125.181 595.439 1125.044 594.561 1125.345 593.785 L 1128.161 586.512 Z"
     style="fill:#efff5e;fill-opacity:1"
     id="path10" />
  <path
     class="fill-purple"
     d="M 109.272 171.631 C 109.643 170.672 110.497 169.986 111.512 169.828 L 121.017 168.352 C 122.032 168.193 123.054 168.59 123.698 169.389 L 129.729 176.883 C 130.373 177.683 130.542 178.766 130.171 179.723 L 126.697 188.693 C 126.326 189.651 125.473 190.339 124.458 190.497 L 114.952 191.973 C 113.937 192.131 112.916 191.736 112.272 190.935 L 106.24 183.442 C 105.596 182.641 105.428 181.559 105.798 180.601 L 109.272 171.631 Z"
     style="fill:#800000"
     id="path12" />
  <path
     class="fill-purple"
     d="M 258.215 770.571 C 258.563 769.674 259.363 769.03 260.314 768.882 L 269.221 767.499 C 270.171 767.351 271.129 767.722 271.732 768.471 L 277.384 775.492 C 277.988 776.243 278.146 777.257 277.798 778.155 L 274.543 786.559 C 274.195 787.457 273.395 788.101 272.444 788.249 L 263.538 789.633 C 262.587 789.781 261.629 789.41 261.026 788.66 L 255.374 781.639 C 254.771 780.889 254.613 779.874 254.96 778.976 L 258.215 770.571 Z"
     style="fill:#ff6600;fill-opacity:1"
     id="path14" />
  <circle
     class="fill-cyan"
     stroke-width="3"
     stroke-miterlimit="10"
     cx="730.584"
     cy="767.881"
     r="9.997"
     style="fill:#ffa800;fill-opacity:1"
     id="circle16" />
  <path
     class="fill-purple"
     d="M 1390.234 263.204 C 1390.491 262.543 1391.08 262.067 1391.782 261.958 L 1398.352 260.938 C 1399.053 260.829 1399.759 261.103 1400.204 261.655 L 1404.373 266.834 C 1404.818 267.387 1404.934 268.136 1404.678 268.798 L 1402.277 274.997 C 1402.021 275.659 1401.43 276.134 1400.729 276.244 L 1394.16 277.265 C 1393.459 277.373 1392.752 277.1 1392.307 276.547 L 1388.138 271.368 C 1387.693 270.815 1387.577 270.066 1387.833 269.404 L 1390.234 263.204 Z"
     style="fill:#e3dedb;fill-opacity:1"
     id="path18" />
  <path
     inkscape:connector-curvature="0"
     class="fill-pink"
     d="m 766.19181,400.2923 c 0.301,-0.777 0.993,-1.334 1.816,-1.462 l 7.707,-1.197 c 0.822,-0.128 1.651,0.193 2.173,0.842 l 4.89,6.075 c 0.522,0.649 0.659,1.527 0.358,2.303 l -2.816,7.273 c -0.301,0.777 -0.993,1.334 -1.816,1.462 l -7.706,1.197 c -0.823,0.128 -1.652,-0.193 -2.174,-0.842 l -4.89,-6.075 c -0.522,-0.649 -0.659,-1.527 -0.358,-2.303 z"
     id="path10-3"
     style="fill:#ffff00;fill-opacity:1" />
  <path
     inkscape:connector-curvature="0"
     class="fill-purple"
     d="m 1460.2658,762.0289 c 0.257,-0.661 0.846,-1.137 1.548,-1.246 l 6.57,-1.02 c 0.701,-0.109 1.407,0.165 1.852,0.717 l 4.169,5.179 c 0.445,0.553 0.561,1.302 0.305,1.964 l -2.401,6.199 c -0.256,0.662 -0.847,1.137 -1.548,1.247 l -6.569,1.021 c -0.701,0.108 -1.408,-0.165 -1.853,-0.718 l -4.169,-5.179 c -0.445,-0.553 -0.561,-1.302 -0.305,-1.964 z"
     id="path18-7"
     style="fill:#ff0000;fill-opacity:1" />
  <path
     inkscape:connector-curvature="0"
     class="fill-purple"
     d="m 670.93732,52.1814 c 0.257,-0.661 0.846,-1.137 1.548,-1.246 l 6.57,-1.02 c 0.701,-0.109 1.407,0.165 1.852,0.717 l 4.169,5.179 c 0.445,0.553 0.561,1.302 0.305,1.964 l -2.401,6.199 c -0.256,0.662 -0.847,1.137 -1.548,1.247 l -6.569,1.021 c -0.701,0.108 -1.408,-0.165 -1.853,-0.718 l -4.169,-5.179 c -0.445,-0.553 -0.561,-1.302 -0.305,-1.964 z"
     id="path18-5"
     style="fill:#ffcd1e;fill-opacity:1" />
  <path
     inkscape:connector-curvature="0"
     class="fill-blue"
     d="m 937.56753,-21.676374 c 2.27788,-1.185607 5.0647,-1.00756 7.31436,0.467415 L 965.943,-7.3968954 c 2.24853,1.4739647 3.6153,4.0212218 3.58802,6.68069605 L 969.26734,24.20035 c -0.0283,2.660575 -1.44826,5.029801 -3.725,6.216418 L 944.21638,41.52023 c -2.27787,1.185608 -5.06469,1.007568 -7.31528,-0.466299 L 915.83998,27.24186 c -2.24852,-1.473957 -3.61737,-4.021125 -3.58708,-6.681804 l 0.26369,-24.9165436 c 0.0283,-2.6605825 1.44826,-5.0298004 3.725,-6.2164174 z"
     style="fill:#ff0000;fill-opacity:1;stroke-width:1.48463047"
     id="path8-3" />
  <path
     inkscape:connector-curvature="0"
     class="fill-blue"
     d="m 70.582323,588.43968 c 1.25528,-0.65336 2.791025,-0.55524 4.030754,0.25758 l 11.606237,7.61147 c 1.239106,0.81226 1.992298,2.21599 1.977265,3.68156 l -0.145307,13.73086 c -0.0156,1.46618 -0.798099,2.7718 -2.052752,3.42571 l -11.752188,6.11883 c -1.255275,0.65336 -2.79102,0.55525 -4.031262,-0.25696 l -11.606239,-7.61148 c -1.239101,-0.81225 -1.993439,-2.21593 -1.976747,-3.68217 l 0.145313,-13.73086 c 0.01559,-1.46618 0.798098,-2.77179 2.052751,-3.42571 z"
     style="fill:#550000;fill-opacity:1;stroke-width:0.81814152"
     id="path8-3-3" />
  <path
     inkscape:connector-curvature="0"
     class="fill-blue"
     d="m 1427.7254,602.12451 c 1.4038,0.17787 2.6103,1.13324 3.1663,2.50741 l 5.2047,12.86663 c 0.5559,1.37343 0.3755,2.95616 -0.4716,4.15225 l -7.9399,11.2034 c -0.8474,1.19659 -2.2347,1.82373 -3.6384,1.6466 l -13.1448,-1.66408 c -1.4039,-0.17793 -2.6103,-1.13323 -3.1671,-2.50719 l -5.2047,-12.86669 c -0.5559,-1.37337 -0.3764,-2.95674 0.4724,-4.15241 l 7.9399,-11.2034 c 0.8474,-1.19659 2.2347,-1.82373 3.6383,-1.64666 z"
     style="fill:#ffb380;fill-opacity:1;stroke-width:0.81814152"
     id="path8-3-6" />
</svg>
