<?xml version="1.0" encoding="utf-8"?>
<!-- Generator: Adobe Illustrator 16.0.0, SVG Export Plug-In . SVG Version: 6.00 Build 0)  -->
<!DOCTYPE svg PUBLIC "-//W3C//DTD SVG 1.1//EN" "http://www.w3.org/Graphics/SVG/1.1/DTD/svg11.dtd">
<svg version="1.1"
	 id="svg3336" xmlns:dc="http://purl.org/dc/elements/1.1/" xmlns:cc="http://creativecommons.org/ns#" xmlns:rdf="http://www.w3.org/1999/02/22-rdf-syntax-ns#" xmlns:svg="http://www.w3.org/2000/svg" xmlns:sodipodi="http://sodipodi.sourceforge.net/DTD/sodipodi-0.dtd" xmlns:inkscape="http://www.inkscape.org/namespaces/inkscape" sodipodi:docname="logo.svg" inkscape:version="0.48.4 r9939"
	 xmlns="http://www.w3.org/2000/svg" xmlns:xlink="http://www.w3.org/1999/xlink" x="0px" y="0px" width="648.34px"
	 height="139.814px" viewBox="0 0 648.34 139.814" enable-background="new 0 0 648.34 139.814" xml:space="preserve">
<sodipodi:namedview  fit-margin-left="0" fit-margin-top="0" showgrid="false" inkscape:cy="73.162202" inkscape:cx="267.02065" inkscape:zoom="1.979899" borderopacity="1.0" bordercolor="#666666" pagecolor="#ffffff" id="base" inkscape:window-maximized="1" inkscape:window-y="21" inkscape:window-x="43" inkscape:window-height="747" inkscape:window-width="1323" fit-margin-bottom="0" inkscape:current-layer="g3369" inkscape:pageshadow="2" inkscape:pageopacity="0" fit-margin-right="0" inkscape:document-units="px">
	</sodipodi:namedview>
<g id="layer1" transform="translate(-55.6878,-423.60989)" inkscape:label="Layer 1" inkscape:groupmode="layer">
	<g id="g3305" transform="matrix(0.50441805,0,0,-0.50441805,-2047.1283,2623.6041)">
		<g id="g3369" transform="matrix(0.99730749,0,0,0.99730749,12.588198,11.053303)">
			<g>
				<path fill="#C62828" d="M4270.405,4275.94c24.559,0.31,8.149-12.16,36.22-1.94c52.02,18.951,49.789-4.209,79.899-11.089
					c22.73-5.2,34.399,17.84,41.06-4.38c4.884-16.272-3.339-30.698-17.606-43.13c1.604-2.138,3-5.04,4.177-8.977
					c7.33-24.431-10.801-44.371-35.661-59.93c-23.9-14.952-54.079-25.88-72.839-32.671c-2.39-0.862-4.561-1.648-6.49-2.357
					c9.903-2.752,20.327-4.255,31.108-4.255c32.011,0,60.98,12.96,81.952,33.919c20.97,20.96,33.951,49.931,33.951,81.911
					c0,31.99-12.981,60.949-33.951,81.91c-20.971,20.961-49.94,33.92-81.952,33.92c-32,0-60.968-12.959-81.94-33.92
					c-20.969-20.96-33.948-49.92-33.948-81.91c0-5.005,0.353-9.926,0.971-14.765c13.523,15.858,25.22,22.04,28.868,42.334
					C4247.104,4266.609,4256.844,4275.77,4270.405,4275.94z"/>
				<path fill="#C62828" d="M4330.273,4361.629c-76.53,0-138.58-62.049-138.58-138.589c0-76.54,62.05-138.59,138.58-138.59
					c76.542,0,138.591,62.05,138.591,138.59C4468.864,4299.581,4406.814,4361.629,4330.273,4361.629z M4417.515,4135.851
					c-22.33-22.311-53.171-36.111-87.242-36.111c-14.346,0-28.108,2.475-40.917,6.977c-0.013-0.023-0.029-0.043-0.042-0.066
					c0.001,0,0.002,0,0.002,0h-0.002l0,0c-2.035,0.713-4.043,1.487-6.027,2.307c-1.633,0.673-3.243,1.392-4.84,2.133
					c-0.217,0.101-0.445,0.188-0.662,0.291c0.002,0.006,0.006,0.01,0.009,0.016c-0.083,0.039-0.165,0.078-0.247,0.117l-0.011-0.023
					h-0.002c-0.249,0.118-0.484,0.254-0.731,0.375c-1.75,0.843-3.478,1.724-5.182,2.646c-0.453,0.245-0.9,0.499-1.35,0.75
					c-1.781,0.994-3.542,2.017-5.268,3.094c-0.236,0.147-0.465,0.303-0.699,0.452c-1.695,1.074-3.361,2.19-4.999,3.345
					c-0.236,0.167-0.478,0.326-0.712,0.495c-1.202,0.858-2.39,1.735-3.559,2.636c-0.194,0.161-0.38,0.33-0.573,0.493
					c-0.844,0.656-1.68,1.32-2.505,2c-0.327,0.27-0.643,0.553-0.967,0.825c-2.45,2.06-4.821,4.207-7.104,6.449
					c-0.276,0.271-0.568,0.528-0.841,0.801c-0.02,0.02-0.038,0.041-0.058,0.061c-0.901,0.904-1.769,1.84-2.643,2.772
					c-0.631,0.672-1.267,1.341-1.883,2.027c-0.81,0.902-1.598,1.823-2.381,2.749c-0.646,0.763-1.282,1.534-1.91,2.312
					c-0.732,0.911-1.457,1.823-2.164,2.753c-0.658,0.866-1.293,1.749-1.928,2.632c-0.638,0.889-1.286,1.767-1.9,2.673
					c-0.011,0.014-0.022,0.029-0.032,0.045c-0.069,0.095-0.142,0.184-0.21,0.279c-1.037,1.534-2.027,3.1-2.994,4.684
					c-0.237,0.387-0.463,0.779-0.695,1.169c-0.718,1.208-1.418,2.426-2.097,3.663c-0.16,0.289-0.325,0.575-0.482,0.868l-0.012-0.014
					c-0.102,0.188-0.189,0.386-0.291,0.575c-0.143,0.268-0.287,0.532-0.428,0.8c-0.481,0.922-0.938,1.856-1.397,2.79
					c-0.205,0.416-0.417,0.827-0.617,1.244c-0.021,0.047-0.045,0.089-0.066,0.136c-0.198,0.415-0.386,0.836-0.58,1.256
					c-0.329,0.712-0.641,1.433-0.956,2.151c-0.334,0.759-0.673,1.516-0.992,2.285c-0.119,0.288-0.257,0.565-0.375,0.854
					c0.009,0.01,0.018,0.019,0.026,0.029c-0.083,0.204-0.16,0.41-0.242,0.614c-0.327,0.817-0.658,1.63-0.969,2.456
					c-0.578,1.538-1.112,3.094-1.63,4.661c-0.189,0.573-0.4,1.138-0.58,1.714c-0.676,2.151-1.291,4.325-1.849,6.524
					c-0.14,0.551-0.252,1.114-0.385,1.669c-0.404,1.685-0.782,3.38-1.114,5.092c-0.056,0.284-0.132,0.561-0.186,0.847
					c0.01,0.014,0.019,0.023,0.027,0.037c-1.381,7.389-2.138,14.996-2.138,22.785c0,34.049,13.81,64.88,36.129,87.19
					c22.33,22.31,53.17,36.11,87.229,36.11c34.071,0,64.912-13.8,87.242-36.11c22.318-22.31,36.128-53.141,36.128-87.19
					C4453.643,4188.99,4439.833,4158.169,4417.515,4135.851z"/>
				<path fill="#FFFFFF" d="M4230.078,4151.156c-0.639,0.887-1.285,1.768-1.9,2.673
					C4228.792,4152.922,4229.44,4152.045,4230.078,4151.156z"/>
				<path fill="#FFFFFF" d="M4215.738,4177.256c-0.327,0.817-0.658,1.63-0.969,2.456
					C4215.08,4178.886,4215.411,4178.073,4215.738,4177.256z"/>
				<path fill="#FFFFFF" d="M4234.169,4145.771c-0.732,0.911-1.457,1.825-2.164,2.753
					C4232.712,4147.593,4233.437,4146.681,4234.169,4145.771z"/>
				<path fill="#FFFFFF" d="M4213.139,4184.372c-0.189,0.573-0.4,1.138-0.58,1.714
					C4212.739,4185.51,4212.95,4184.945,4213.139,4184.372z"/>
				<path opacity="0.4" fill="#FFFFFF" d="M4222.654,4185.403c2.079,3.548,3.659,7.629,4.589,12.779c0.78,4.37,2.06,8.32,3.76,11.79
					c1.771,3.61,3.99,6.711,6.61,9.26c2.739,2.64,5.899,4.69,9.399,6.081c3.44,1.37,7.209,2.1,11.23,2.15
					c6.1,0.08,10.11-0.609,12.94-1.6c3.11-1.081,4.75-2.411,6.179-3.56c1.021-0.819,1.662-1.332,13.372,2.939
					c17.96,6.54,29.759,8.13,38.749,7.09c9.26-1.07,15.28-4.799,21.81-8.85c2.63-1.629,5.372-3.33,8.491-4.84
					c3.04-1.479,6.489-2.809,10.63-3.758c7.419-1.691,13.789,0.75,18.879,2.698h0.021c0.66,0.26,1.32,0.511,2.45,0.92h0.01
					c0.91,0.33,1.759,0.621,2.469,0.831c4.35,1.301,8.18,1.641,11.771-0.349c1.444-0.798,2.761-1.98,3.963-3.583
					c14.268,12.433,22.491,26.858,17.606,43.13c-6.661,22.221-18.329-0.819-41.06,4.38c-30.11,6.88-27.88,30.04-79.899,11.089
					c-28.07-10.22-11.661,2.25-36.22,1.94c-13.562-0.17-23.301-9.331-26.182-25.331c-3.648-20.294-15.345-26.477-28.868-42.334
					c1.1-8.631,3.118-16.976,6.012-24.906C4221.812,4184.033,4222.247,4184.704,4222.654,4185.403z"/>
				<path fill="#FFFFFF" d="M4210.71,4192.611c-0.14,0.551-0.252,1.114-0.385,1.669
					C4210.458,4193.725,4210.57,4193.162,4210.71,4192.611z"/>
				<path fill="#FFFFFF" d="M4209.025,4200.219c0.053-0.286,0.13-0.563,0.186-0.847c-0.058,0.293-0.103,0.59-0.158,0.883
					C4209.043,4200.242,4209.035,4200.232,4209.025,4200.219z"/>
				<path fill="#FFFFFF" d="M4217.321,4173.474c0.315-0.718,0.627-1.438,0.956-2.151c-0.195,0.421-0.371,0.852-0.561,1.277
					C4217.585,4172.892,4217.45,4173.181,4217.321,4173.474z"/>
				<path fill="#FFFFFF" d="M4265.002,4118.354c-0.236,0.147-0.465,0.303-0.699,0.452
					C4264.538,4118.657,4264.767,4118.502,4265.002,4118.354z"/>
				<path fill="#FFFFFF" d="M4271.62,4114.511c-0.453,0.245-0.9,0.499-1.35,0.75
					C4270.72,4115.01,4271.167,4114.755,4271.62,4114.511z"/>
				<path fill="#FFFFFF" d="M4277.533,4111.49h0.002l0.011,0.023c-0.248,0.116-0.498,0.231-0.744,0.351
					C4277.049,4111.745,4277.285,4111.608,4277.533,4111.49z"/>
				<path fill="#FFFFFF" d="M4242.986,4135.911c-0.901,0.902-1.768,1.84-2.643,2.772
					C4241.217,4137.751,4242.084,4136.815,4242.986,4135.911z"/>
				<path fill="#FFFFFF" d="M4238.46,4140.71c-0.81,0.902-1.598,1.823-2.381,2.749
					C4236.862,4142.533,4237.65,4141.612,4238.46,4140.71z"/>
				<path fill="#FFFFFF" d="M4259.305,4122.151c-0.236,0.167-0.478,0.326-0.712,0.495
					C4258.828,4122.478,4259.069,4122.318,4259.305,4122.151z"/>
				<path fill="#FFFFFF" d="M4250.989,4128.6c-2.452,2.058-4.82,4.209-7.104,6.449
					C4246.167,4132.807,4248.539,4130.66,4250.989,4128.6z"/>
				<path fill="#FFFFFF" d="M4220.937,4165.897c0.141-0.268,0.285-0.532,0.428-0.8c-0.034,0.064-0.063,0.128-0.096,0.192
					C4221.16,4165.494,4221.044,4165.693,4220.937,4165.897z"/>
				<path fill="#FFFFFF" d="M4251.956,4127.775c0.825-0.68,1.662-1.343,2.505-2c-0.159,0.132-0.315,0.27-0.473,0.404
					C4253.312,4126.713,4252.621,4127.23,4251.956,4127.775z"/>
				<path fill="#FFFFFF" d="M4224.554,4159.487c-0.104,0.171-0.205,0.346-0.308,0.519c0.232-0.39,0.458-0.782,0.695-1.169
					c-0.023,0.037-0.044,0.074-0.067,0.111C4224.766,4159.126,4224.662,4159.309,4224.554,4159.487z"/>
				<path fill="#FFFFFF" d="M4224.941,4158.837c0.967-1.584,1.957-3.15,2.994-4.684c0.069-0.095,0.142-0.184,0.21-0.279
					c-0.866,1.273-1.69,2.578-2.508,3.886C4225.41,4158.121,4225.165,4158.47,4224.941,4158.837z"/>
				<path fill="#FFFFFF" d="M4255.676,4124.855c-0.405,0.307-0.815,0.606-1.215,0.92c0.193-0.163,0.379-0.332,0.573-0.493
					c1.169-0.901,2.357-1.778,3.559-2.636c-0.562,0.402-1.096,0.839-1.65,1.248
					C4256.517,4124.211,4256.097,4124.533,4255.676,4124.855z"/>
				<path fill="#FFFFFF" d="M4283.286,4108.957c-1.633,0.673-3.244,1.392-4.84,2.133
					C4280.043,4110.349,4281.653,4109.63,4283.286,4108.957z"/>
				<path fill="#FFFFFF" d="M4218.856,4170.067c0.021-0.047,0.044-0.089,0.066-0.136c-0.003,0.008-0.007,0.018-0.011,0.025
					C4218.894,4169.994,4218.874,4170.028,4218.856,4170.067z"/>
				<path fill="#FFFFFF" d="M4276.802,4111.865c-1.75,0.843-3.479,1.722-5.182,2.646
					C4273.324,4113.589,4275.051,4112.708,4276.802,4111.865z"/>
				<path fill="#FFFFFF" d="M4260.887,4121.092c-0.524,0.359-1.064,0.695-1.582,1.06c1.637-1.155,3.304-2.271,4.999-3.345
					c-0.813,0.515-1.597,1.068-2.396,1.602C4261.567,4120.635,4261.226,4120.862,4260.887,4121.092z"/>
				<path fill="#FFFFFF" d="M4270.27,4115.26c-1.78,0.994-3.542,2.017-5.268,3.094
					C4266.728,4117.277,4268.489,4116.254,4270.27,4115.26z"/>
				<path fill="#FFFFFF" d="M4277.563,4111.55l-0.017-0.037c0.082-0.039,0.164-0.078,0.247-0.117
					c0.006,0.014,0.015,0.027,0.021,0.041C4277.73,4111.477,4277.646,4111.512,4277.563,4111.55z"/>
				<path opacity="0.4" fill="#FFFFFF" d="M4280.623,4118.362c0.64-0.303,1.292-0.583,1.937-0.875
					c0.289,0.229,0.554,0.474,0.863,0.685c1.332,0.918,3.671,1.98,6.831,3.221c2.879,1.13,6.709,2.52,11.17,4.129
					c34.77,12.589,111.851,40.49,100.79,77.349c-0.841,2.799-1.583,4.207-2.326,4.702c-35.86-25.025-92.873-40.559-99.454-45.103
					L4280.623,4118.362z"/>
				<path fill="#FFFFFF" d="M4219.54,4168.687c0.459-0.934,0.916-1.868,1.397-2.79c-0.25,0.478-0.468,0.973-0.711,1.452
					C4219.998,4167.798,4219.761,4168.239,4219.54,4168.687z"/>
				<path fill="#FFFFFF" d="M4222.149,4163.669c0.679-1.237,1.378-2.456,2.097-3.663c-0.208,0.348-0.396,0.71-0.601,1.062
					C4223.142,4161.932,4222.633,4162.792,4222.149,4163.669z"/>
				<path fill="#FFFFFF" d="M4253.988,4126.18c0.158-0.134,0.314-0.272,0.473-0.404c0.399-0.314,0.81-0.614,1.215-0.92
					C4255.106,4125.289,4254.55,4125.737,4253.988,4126.18z"/>
				<path fill="#FFFFFF" d="M4224.874,4158.948c0.022-0.037,0.044-0.074,0.067-0.111c0.224-0.367,0.469-0.716,0.696-1.077
					C4225.388,4158.158,4225.12,4158.546,4224.874,4158.948z"/>
				<path fill="#FFFFFF" d="M4256.942,4123.895c0.554-0.409,1.088-0.846,1.65-1.248c0.235-0.169,0.477-0.328,0.712-0.495
					c0.518-0.365,1.058-0.701,1.582-1.06C4259.553,4122.002,4258.238,4122.936,4256.942,4123.895z"/>
				<path opacity="0.4" fill="#FFFFFF" d="M4397.803,4207.401c-1.06-0.318-2.399-0.829-3.84-1.378l-0.219-0.082
					c-3.221-1.24-6.86-2.64-11.18-3.45c-4.391-0.831-9.332-1.019-14.92,0.26c-10.271,2.339-16.799,6.389-22.87,10.139l-0.101,0.06
					l-0.02,0.01v0.01c-5.169,3.211-9.97,6.16-16.9,6.911c-7.28,0.791-17.2-0.66-32.78-6.34c-8.641-3.139-13.67-4.269-17.089-4.25
					h-0.012c-4.25,0.039-6.059,1.499-8.309,3.31c-0.65,0.53-1.421,1.149-2.76,1.58c-1.66,0.54-4.21,0.899-8.41,0.85
					c-2.43-0.031-4.69-0.46-6.74-1.26c-2.001-0.79-3.801-1.961-5.36-3.459c-1.641-1.592-3.062-3.591-4.201-5.961
					c-1.161-2.409-2.05-5.22-2.621-8.359c-1.31-7.301-3.57-12.9-6.54-17.751c-1.737-2.84-3.725-5.383-5.87-7.854
					c5.552-10.85,12.734-20.727,21.27-29.259c9.325-9.32,20.239-17.046,32.29-22.767l19.811,44.107
					c6.581,4.544,63.594,20.078,99.454,45.103c-0.009,0.006-0.018,0.014-0.025,0.019
					C4399.514,4207.82,4398.774,4207.681,4397.803,4207.401z"/>
				<path fill="#FFFFFF" d="M4220.398,4167.012c-0.058,0.113-0.116,0.225-0.173,0.338c0.244-0.479,0.462-0.975,0.711-1.452
					c0.107-0.204,0.223-0.404,0.332-0.607C4220.966,4165.856,4220.691,4166.439,4220.398,4167.012z"/>
				<path fill="#FFFFFF" d="M4223.646,4161.067c0.205-0.351,0.393-0.714,0.601-1.062c0.103-0.173,0.204-0.348,0.308-0.519
					C4224.24,4160.008,4223.951,4160.542,4223.646,4161.067z"/>
				<path fill="#FFFFFF" d="M4261.908,4120.408c0.799-0.534,1.583-1.087,2.396-1.602c0.234-0.149,0.463-0.305,0.699-0.452
					c1.725-1.078,3.488-2.101,5.268-3.094c0.45-0.25,0.897-0.505,1.35-0.75c1.703-0.924,3.432-1.803,5.182-2.646
					c0.246-0.12,0.497-0.235,0.744-0.351l0.017,0.037C4272.113,4114.128,4266.884,4117.093,4261.908,4120.408z"/>
				<path fill="#231F20" d="M4277.784,4111.381c0.217-0.103,0.445-0.19,0.662-0.291c-0.218,0.101-0.436,0.204-0.653,0.307
					C4277.79,4111.391,4277.786,4111.387,4277.784,4111.381z"/>
				<polygon fill="#231F20" points="4289.315,4106.65 4289.313,4106.65 4289.313,4106.65 				"/>
				<path fill="#231F20" d="M4283.483,4108.872c-0.066,0.027-0.131,0.058-0.197,0.085c1.984-0.819,3.992-1.594,6.027-2.307
					c0.014,0.023,0.03,0.043,0.042,0.066c-1.969,0.691-3.917,1.429-5.839,2.217
					C4283.507,4108.912,4283.493,4108.893,4283.483,4108.872z"/>
				<path fill="#231F20" d="M4221.364,4165.098c0.101-0.188,0.188-0.386,0.291-0.575l0.012,0.014
					c-0.052,0.095-0.098,0.194-0.149,0.291C4221.468,4164.919,4221.413,4165.006,4221.364,4165.098z"/>
				<path fill="#231F20" d="M4215.953,4176.613c0.119-0.29,0.256-0.567,0.375-0.854c-0.121,0.292-0.23,0.59-0.349,0.883
					C4215.971,4176.632,4215.962,4176.623,4215.953,4176.613z"/>
				<path fill="#C62828" d="M4378.494,4146.493c24.86,15.559,42.991,35.5,35.661,59.93c-1.176,3.937-2.573,6.839-4.177,8.977
					c-1.567-1.367-3.204-2.71-4.907-4.026c1.15-1.472,2.185-3.624,3.113-6.721c14.832-49.447-97.196-81.012-118.389-90.165
					c3.061-1.141,6.191-2.139,9.37-3.022c1.929,0.708,4.1,1.495,6.49,2.357C4324.415,4120.612,4354.593,4131.541,4378.494,4146.493z
					"/>
				<path fill="#231F20" d="M4218.698,4170.428c-0.071,0.151-0.136,0.307-0.207,0.458c-0.069,0.148-0.146,0.29-0.214,0.437
					c0.193-0.419,0.381-0.841,0.58-1.256c-0.056,0.116-0.117,0.229-0.172,0.345
					C4218.689,4170.418,4218.694,4170.422,4218.698,4170.428z"/>
				<path fill="#231F20" d="M4221.495,4164.873c-0.075,0.14-0.152,0.277-0.226,0.417c0.033-0.064,0.062-0.128,0.096-0.192
					c0.049-0.091,0.104-0.179,0.153-0.27C4221.51,4164.841,4221.502,4164.857,4221.495,4164.873z"/>
				<path fill="#C62828" d="M4233.364,4197.082c2.749,15.26,12.02,24,24.958,24.17c23.412,0.29,7.771-11.61,34.531-1.861
					c49.601,18.071,47.469-4.009,76.171-10.568c18.51-4.234,29.325,11.141,36.046,2.551c1.704,1.316,3.34,2.66,4.907,4.026
					c-1.202,1.604-2.519,2.786-3.963,3.583c-3.591,1.99-7.421,1.65-11.771,0.349c-0.71-0.209-1.559-0.5-2.469-0.831h-0.01
					c-1.13-0.41-1.79-0.66-2.45-0.92h-0.021c-5.09-1.949-11.459-4.389-18.879-2.698c-4.141,0.949-7.59,2.279-10.63,3.758
					c-3.12,1.51-5.861,3.211-8.491,4.84c-6.53,4.051-12.55,7.78-21.81,8.85c-8.99,1.04-20.789-0.55-38.749-7.09
					c-11.709-4.271-12.35-3.758-13.372-2.939c-1.429,1.149-3.069,2.479-6.179,3.56c-2.831,0.99-6.841,1.679-12.94,1.6
					c-4.021-0.05-7.79-0.78-11.23-2.15c-3.5-1.391-6.661-3.441-9.399-6.081c-2.621-2.549-4.84-5.649-6.61-9.26
					c-1.7-3.469-2.979-7.419-3.76-11.79c-0.93-5.15-2.51-9.23-4.589-12.779c-0.408-0.699-0.842-1.371-1.287-2.035
					c0.842-2.306,1.774-4.568,2.755-6.802C4228.457,4182.018,4231.739,4188.094,4233.364,4197.082z"/>
				<path fill="#231F20" d="M4217.716,4172.601c0.19-0.425,0.366-0.856,0.561-1.277c0.068-0.147,0.146-0.289,0.214-0.437
					C4218.227,4171.453,4217.973,4172.028,4217.716,4172.601z"/>
				<path fill="#C62828" d="M4408.183,4204.652c-0.928,3.097-1.962,5.249-3.113,6.721c-1.669-1.291-3.4-2.559-5.182-3.801
					c0.743-0.495,1.485-1.902,2.326-4.702c11.061-36.859-66.02-64.76-100.79-77.349c-4.461-1.609-8.291-2.999-11.17-4.129
					c-3.16-1.241-5.5-2.302-6.831-3.221c-0.309-0.211-0.575-0.456-0.863-0.685c2.374-1.072,4.779-2.085,7.234-3
					C4310.987,4123.641,4423.015,4155.205,4408.183,4204.652z"/>
				<path fill="#231F20" d="M4218.698,4170.428c-0.004-0.006-0.009-0.01-0.014-0.016c0.055-0.116,0.116-0.229,0.172-0.345
					c0.018-0.039,0.038-0.074,0.055-0.111C4218.838,4170.112,4218.772,4170.271,4218.698,4170.428z"/>
				<path fill="#231F20" d="M4283.516,4108.934c-1.925,0.79-3.828,1.623-5.703,2.504c-0.006-0.013-0.015-0.027-0.021-0.041
					c0.217-0.103,0.435-0.206,0.653-0.307c1.597-0.742,3.207-1.46,4.84-2.133c0.066-0.027,0.131-0.059,0.197-0.085
					C4283.493,4108.893,4283.507,4108.912,4283.516,4108.934z"/>
				<path fill="#231F20" d="M4221.269,4165.29c0.074-0.14,0.151-0.278,0.226-0.417c-0.379,0.705-0.731,1.425-1.096,2.139
					C4220.691,4166.439,4220.966,4165.856,4221.269,4165.29z"/>
				<path fill="#C62828" d="M4369.024,4208.822c-28.702,6.56-26.57,28.639-76.171,10.568c-26.76-9.749-11.119,2.151-34.531,1.861
					c-12.938-0.171-22.21-8.91-24.958-24.17c-1.625-8.988-4.908-15.064-9.242-20.515c0.919-2.095,1.904-4.152,2.941-6.179
					c2.145,2.471,4.133,5.014,5.87,7.854c2.97,4.851,5.23,10.45,6.54,17.751c0.571,3.139,1.46,5.95,2.621,8.359
					c1.14,2.37,2.561,4.37,4.201,5.961c1.559,1.499,3.358,2.669,5.36,3.459c2.05,0.8,4.31,1.229,6.74,1.26
					c4.199,0.049,6.75-0.311,8.41-0.85c1.339-0.431,2.11-1.05,2.76-1.58c2.25-1.812,4.059-3.271,8.309-3.31h0.012
					c3.418-0.02,8.448,1.11,17.089,4.25c15.58,5.68,25.5,7.13,32.78,6.34c6.93-0.751,11.731-3.7,16.9-6.911v-0.01l0.02-0.01
					l0.101-0.06c6.07-3.75,12.599-7.8,22.87-10.139c5.589-1.279,10.529-1.091,14.92-0.26c4.319,0.81,7.959,2.209,11.18,3.45
					l0.219,0.082c1.44,0.549,2.78,1.06,3.84,1.378c0.971,0.279,1.71,0.419,2.06,0.19c0.008-0.005,0.017-0.013,0.025-0.019
					c1.782,1.242,3.513,2.51,5.182,3.801C4398.35,4219.963,4387.534,4204.588,4369.024,4208.822z"/>
				<path fill="#FFFFFF" d="M4228.145,4153.874c0.01-0.016,0.021-0.031,0.032-0.045c-0.004,0.006-0.008,0.012-0.012,0.018
					C4228.159,4153.854,4228.152,4153.864,4228.145,4153.874z"/>
				<path fill="#FFFFFF" d="M4210.325,4194.28c-0.403,1.685-0.782,3.38-1.114,5.092
					C4209.543,4197.66,4209.921,4195.965,4210.325,4194.28z"/>
				<path fill="#FFFFFF" d="M4212.559,4186.086c-0.675,2.151-1.291,4.325-1.849,6.524
					C4211.268,4190.412,4211.883,4188.237,4212.559,4186.086z"/>
				<path fill="#FFFFFF" d="M4215.738,4177.256c0.082-0.204,0.159-0.41,0.242-0.614c0.004,0.004,0.007,0.008,0.011,0.012
					C4215.908,4176.856,4215.819,4177.054,4215.738,4177.256z"/>
				<path fill="#FFFFFF" d="M4219.54,4168.687c-0.205,0.416-0.417,0.827-0.617,1.244
					C4219.122,4169.514,4219.335,4169.103,4219.54,4168.687z"/>
				<path fill="#FFFFFF" d="M4232.005,4148.523c-0.658,0.866-1.293,1.749-1.928,2.632
					C4230.712,4150.272,4231.347,4149.389,4232.005,4148.523z"/>
				<path opacity="0.4" fill="#FFFFFF" d="M4417.515,4310.23c-22.33,22.31-53.171,36.11-87.242,36.11
					c-34.059,0-64.899-13.8-87.229-36.11c-22.319-22.31-36.129-53.141-36.129-87.19c0-7.789,0.756-15.396,2.138-22.785
					c2.13,2.96,4.237,5.597,6.303,8.02c-0.618,4.839-0.971,9.76-0.971,14.765c0,31.99,12.979,60.949,33.948,81.91
					c20.972,20.961,49.94,33.92,81.94,33.92c32.011,0,60.98-12.959,81.952-33.92c20.97-20.96,33.951-49.92,33.951-81.91
					c0-31.98-12.981-60.951-33.951-81.911c-20.971-20.959-49.94-33.919-81.952-33.919c-10.782,0-21.205,1.503-31.108,4.255
					c-1.494-0.549-2.855-1.056-3.981-1.493c-2.5-0.971-4.17-1.66-4.7-2.031c-0.279-0.2-0.54-0.44-0.771-0.701h-0.01
					c-0.125-0.159-0.238-0.34-0.348-0.524c12.81-4.502,26.572-6.977,40.917-6.977c34.071,0,64.912,13.8,87.242,36.111
					c22.318,22.319,36.128,53.14,36.128,87.189C4453.643,4257.089,4439.833,4287.92,4417.515,4310.23z"/>
				<path fill="#FFFFFF" d="M4236.079,4143.458c-0.646,0.763-1.283,1.534-1.91,2.312
					C4234.797,4144.992,4235.434,4144.222,4236.079,4143.458z"/>
				<path fill="#FFFFFF" d="M4214.769,4179.711c-0.577,1.538-1.112,3.094-1.63,4.661
					C4213.657,4182.806,4214.191,4181.249,4214.769,4179.711z"/>
				<path fill="#FFFFFF" d="M4216.329,4175.759c0.319-0.769,0.658-1.525,0.992-2.285c-0.08,0.181-0.15,0.367-0.23,0.549
					C4216.839,4174.602,4216.572,4175.175,4216.329,4175.759z"/>
				<path fill="#FFFFFF" d="M4251.956,4127.775c-0.327,0.27-0.643,0.553-0.967,0.825
					C4251.313,4128.329,4251.628,4128.045,4251.956,4127.775z"/>
				<path fill="#FFFFFF" d="M4221.667,4164.537c0.158-0.293,0.322-0.579,0.482-0.868c-0.16,0.289-0.318,0.583-0.476,0.874
					L4221.667,4164.537z"/>
				<path fill="#FFFFFF" d="M4240.343,4138.683c-0.631,0.672-1.267,1.341-1.883,2.027
					C4239.076,4140.024,4239.712,4139.355,4240.343,4138.683z"/>
				<path fill="#FFFFFF" d="M4243.043,4135.851c0.273-0.273,0.565-0.53,0.841-0.801c-0.296,0.291-0.605,0.568-0.899,0.862
					C4243.005,4135.892,4243.024,4135.87,4243.043,4135.851z"/>
				<path fill="#FFFFFF" d="M4217.091,4174.023c0.08-0.183,0.15-0.369,0.23-0.549c0.129-0.293,0.264-0.583,0.395-0.874
					C4217.504,4173.072,4217.297,4173.548,4217.091,4174.023z"/>
				<path opacity="0.4" fill="#FFFFFF" d="M4221.367,4183.369c-2.894,7.93-4.912,16.275-6.012,24.906
					c-2.066-2.423-4.173-5.059-6.303-8.02c0.055-0.293,0.101-0.59,0.158-0.883c0.333-1.712,0.711-3.407,1.114-5.092
					c0.133-0.555,0.246-1.118,0.385-1.669c0.558-2.199,1.174-4.374,1.849-6.524c0.18-0.577,0.391-1.142,0.58-1.714
					c0.518-1.566,1.053-3.123,1.63-4.661c0.311-0.825,0.642-1.639,0.969-2.456c0.082-0.202,0.17-0.4,0.252-0.602
					C4217.983,4178.828,4219.787,4181.008,4221.367,4183.369z"/>
				<path opacity="0.5" fill="#231F20" d="M4228.166,4153.846c0.004-0.006,0.008-0.012,0.012-0.018
					c0.615-0.905,1.262-1.786,1.9-2.673c0.635-0.883,1.27-1.767,1.928-2.632c0.707-0.928,1.432-1.842,2.164-2.753
					c0.627-0.778,1.265-1.549,1.91-2.312c0.783-0.926,1.571-1.846,2.381-2.749c0.616-0.686,1.252-1.355,1.883-2.027
					c0.875-0.932,1.742-1.87,2.643-2.772c0.293-0.293,0.603-0.571,0.899-0.862c2.284-2.24,4.652-4.391,7.104-6.449
					c0.324-0.271,0.64-0.555,0.967-0.825c0.665-0.545,1.356-1.062,2.032-1.596
					C4244.331,4134.346,4235.653,4143.62,4228.166,4153.846z"/>
				<path fill="#FFFFFF" d="M4224.874,4158.948c-0.108,0.179-0.212,0.361-0.32,0.54
					C4224.662,4159.309,4224.766,4159.126,4224.874,4158.948z"/>
				<path fill="#FFFFFF" d="M4221.677,4164.546l-0.003-0.004c0.157-0.291,0.315-0.584,0.476-0.874
					c0.483-0.877,0.992-1.737,1.496-2.602C4222.975,4162.217,4222.311,4163.372,4221.677,4164.546z"/>
				<path fill="#FFFFFF" d="M4256.942,4123.895c-0.426,0.316-0.845,0.639-1.267,0.961
					C4256.097,4124.533,4256.517,4124.211,4256.942,4123.895z"/>
				<path opacity="0.4" fill="#FFFFFF" d="M4282.56,4117.487c-0.646,0.293-1.297,0.573-1.937,0.875l-3.061-6.812
					c0.083-0.039,0.168-0.074,0.25-0.113c0.578,1.309,1.335,2.551,2.271,3.673
					C4280.798,4115.986,4281.645,4116.765,4282.56,4117.487z"/>
				<path fill="#FFFFFF" d="M4261.908,4120.408c-0.341,0.229-0.683,0.452-1.021,0.684
					C4261.226,4120.862,4261.567,4120.635,4261.908,4120.408z"/>
				<path fill="#FFFFFF" d="M4225.637,4157.76c0.818-1.309,1.642-2.613,2.508-3.886c0.007-0.01,0.014-0.02,0.021-0.027
					C4227.294,4155.129,4226.461,4156.441,4225.637,4157.76z"/>
				<path fill="#FFFFFF" d="M4220.139,4167.526c-0.409,0.809-0.836,1.609-1.227,2.43c0.004-0.008,0.008-0.018,0.011-0.025
					c0.2-0.417,0.413-0.829,0.617-1.244c0.221-0.448,0.458-0.889,0.686-1.337C4220.195,4167.41,4220.167,4167.468,4220.139,4167.526
					z"/>
				<path opacity="0.4" fill="#FFFFFF" d="M4248.333,4141.129c-8.536,8.532-15.718,18.409-21.27,29.259
					c-1.459-1.681-2.978-3.333-4.589-5.005l-0.797-0.836c0.634-1.174,1.298-2.33,1.969-3.479c0.306-0.526,0.595-1.06,0.908-1.58
					c0.108-0.179,0.212-0.361,0.32-0.54c0.246-0.402,0.514-0.79,0.763-1.188c0.824-1.318,1.657-2.63,2.528-3.914
					c7.487-10.227,16.166-19.5,25.822-27.667c0.562-0.443,1.118-0.891,1.688-1.324c0.421-0.322,0.841-0.645,1.267-0.961
					c1.296-0.959,2.61-1.893,3.945-2.803c0.338-0.231,0.68-0.455,1.021-0.684c4.976-3.315,10.205-6.28,15.654-8.858l3.061,6.812
					C4268.572,4124.083,4257.658,4131.809,4248.333,4141.129z"/>
				<path fill="#FFFFFF" d="M4220.225,4167.35c0.057-0.113,0.115-0.225,0.173-0.338c-0.087,0.171-0.173,0.344-0.26,0.515
					C4220.167,4167.468,4220.195,4167.41,4220.225,4167.35z"/>
				<path opacity="0.4" fill="#FFFFFF" d="M4289.713,4107.241c0.231,0.26,0.491,0.501,0.771,0.701c0.53,0.371,2.199,1.06,4.7,2.031
					c1.126,0.437,2.488,0.943,3.981,1.493c-3.179,0.883-6.309,1.881-9.37,3.022c-1.3-0.563-2.274-1.042-2.84-1.435
					c-1.569-1.077-2.688-2.459-3.438-4.119c1.923-0.788,3.87-1.526,5.839-2.217c0.11,0.184,0.223,0.365,0.348,0.524H4289.713z"/>
				<path fill="#FFFFFF" d="M4215.99,4176.654c-0.004-0.004-0.007-0.008-0.011-0.012c0.119-0.293,0.228-0.592,0.349-0.883
					c0.244-0.584,0.511-1.157,0.762-1.735C4216.713,4174.893,4216.348,4175.772,4215.99,4176.654z"/>
				<path fill="#FFFFFF" d="M4218.491,4170.886c0.071-0.151,0.136-0.307,0.207-0.458c0.004,0.004,0.008,0.008,0.012,0.012
					C4218.639,4170.589,4218.562,4170.735,4218.491,4170.886z"/>
				<path fill="#FFFFFF" d="M4221.554,4164.764c-0.012,0.021-0.024,0.043-0.036,0.064c0.052-0.097,0.097-0.196,0.149-0.291
					l0.007,0.006C4221.634,4164.616,4221.592,4164.69,4221.554,4164.764z"/>
				<path fill="#FFFFFF" d="M4221.518,4164.828c0.012-0.021,0.024-0.042,0.036-0.064c-0.02,0.037-0.04,0.072-0.059,0.109
					C4221.502,4164.857,4221.51,4164.841,4221.518,4164.828z"/>
				<path opacity="0.4" fill="#FFFFFF" d="M4224.122,4176.566c-0.98,2.234-1.913,4.496-2.755,6.802
					c-1.58-2.36-3.384-4.541-5.377-6.715c0.358-0.881,0.723-1.761,1.101-2.63c0.207-0.476,0.414-0.951,0.625-1.423
					c0.257-0.573,0.511-1.147,0.775-1.714c0.071-0.151,0.147-0.297,0.219-0.446
					C4220.649,4172.475,4222.46,4174.476,4224.122,4176.566z"/>
				<path opacity="0.4" fill="#FFFFFF" d="M4280.084,4115.11c-0.936-1.122-1.693-2.364-2.271-3.673
					c1.875-0.881,3.778-1.714,5.703-2.504c0.75,1.66,1.869,3.042,3.438,4.119c0.566,0.392,1.541,0.872,2.84,1.435
					c-2.456,0.915-4.861,1.928-7.234,3C4281.645,4116.765,4280.798,4115.986,4280.084,4115.11z"/>
				<path fill="#FFFFFF" d="M4221.674,4164.542l0.003,0.004c-0.04,0.074-0.084,0.144-0.123,0.217
					C4221.592,4164.69,4221.634,4164.616,4221.674,4164.542z"/>
				<path fill="#FFFFFF" d="M4218.698,4170.428c0.074-0.157,0.14-0.316,0.213-0.472c0.391-0.821,0.818-1.621,1.227-2.43
					c-0.487,0.965-0.966,1.935-1.429,2.914C4218.706,4170.436,4218.702,4170.432,4218.698,4170.428z"/>
				<path opacity="0.4" fill="#FFFFFF" d="M4227.063,4170.388c-1.037,2.026-2.022,4.084-2.941,6.179
					c-1.662-2.091-3.473-4.092-5.412-6.126c0.463-0.979,0.941-1.949,1.429-2.914c0.086-0.171,0.172-0.344,0.26-0.515
					c0.365-0.714,0.717-1.435,1.096-2.139c0.019-0.037,0.04-0.072,0.059-0.109c0.039-0.074,0.083-0.144,0.123-0.217l0.797,0.836
					C4224.085,4167.055,4225.604,4168.707,4227.063,4170.388z"/>
			</g>
			
				<g id="path198" sodipodi:nodetypes="ccccccscccsccccscccccccsscsscsscscsscscscscscscsscscscccccccccccccccccccccsccscscccscscccccccscscccscscccccccssscsscsscscsscscscscscscsscscssscsscscsscsscscsccscccscscccccccscscccscscccccccc" inkscape:connector-curvature="0">
				
					<image overflow="visible" opacity="0.75" width="494" height="97" xlink:href="F1DFD0FF.png"  transform="matrix(1.9878 0 0 -1.9878 4476.8779 4307.6626)">
				</image>
				<g>
					<g opacity="0.6013">
						<path fill="#C62828" d="M4503.015,4280.739l32.65-117.85c1.041-3.871,3.189-5.839,6.47-5.95c3.281,0,5.601,1.971,6.959,5.95
							l27.721,106.27l27.89-106.099c1.021-4.09,3.189-6.121,6.47-6.121c3.389,0,5.601,2.029,6.62,6.121l32.64,117.679
							c0.352,1.791,0.121,3.39-0.66,4.75c-0.79,1.13-1.92,1.86-3.399,2.21c-1.479,0.349-2.78,0.169-3.919-0.521
							c-1.481-0.79-2.38-2.09-2.731-3.89l-28.899-102.88l-26.35,101.861c-1.02,3.749-3.63,5.599-7.8,5.599
							c-4.1,0-6.648-1.85-7.66-5.599l-26.36-101.861l-29.249,103.371c-0.47,1.601-1.31,2.73-2.551,3.4
							c-1.25,0.69-2.561,0.87-3.919,0.521c-1.479-0.23-2.609-0.901-3.399-2.031c-0.78-1.37-0.951-3.02-0.521-4.93H4503.015z
							 M4771.225,4285.089h-62.021c-5.188,0-9.289-1.721-12.22-5.11c-2.609-3.05-3.919-6.85-3.919-11.41v-92.34
							c0-4.43,1.31-8.18,3.919-11.23c2.931-3.389,7.029-5.1,12.251-5.1h64.25c1.679,0,3.04,0.521,4.059,1.53
							c0.901,0.93,1.361,2.009,1.361,3.259c0,1.361-0.46,2.491-1.361,3.42c-1.019,0.899-2.38,1.361-4.059,1.361h-62.339
							c-2.461,0-4.411,0.788-5.74,2.38c-1.13,1.34-1.722,3.048-1.722,5.079v42.861h46.054c1.691,0,3.05,0.53,4.071,1.539
							c0.898,0.93,1.358,2.01,1.358,3.25c0,1.37-0.46,2.5-1.358,3.43c-1.021,0.9-2.38,1.36-4.071,1.36h-46.054v38.479
							c0,2.151,0.59,3.92,1.722,5.28c1.33,1.6,3.279,2.38,5.74,2.38h60.08c1.559,0,2.869,0.521,3.879,1.54
							c0.9,0.931,1.37,2,1.37,3.25c0,1.36-0.47,2.49-1.37,3.419C4774.094,4284.618,4772.784,4285.088,4771.225,4285.089
							L4771.225,4285.089z M4840.174,4210.208l23.65,64.63h0.491l23.479-64.63H4840.174z M4854.305,4279.858l-42.02-115.26
							c-0.779-1.831-0.851-3.399-0.15-4.76c0.67-1.359,1.691-2.26,3.05-2.729c1.361-0.46,2.669-0.352,3.919,0.35
							c1.481,0.78,2.551,2.03,3.221,3.741l14.451,39.609h54.59l14.27-39.609c0.701-1.71,1.71-2.96,3.081-3.741
							c1.359-0.581,2.7-0.639,4.059-0.181c1.371,0.472,2.32,1.311,2.9,2.561c0.669,1.481,0.73,3.05,0.181,4.76l-24.142,65.981
							l-18.028,49.28c-0.92,2.62-2.259,4.62-4.09,5.98c-1.71,1.25-3.51,1.86-5.42,1.86c-2.18,0-4.1-0.61-5.81-1.86
							C4856.566,4284.479,4855.206,4282.479,4854.305,4279.858L4854.305,4279.858z M4997.866,4287.869
							c-13.261,0-23.71-2.72-31.311-8.15c-7.491-5.57-11.23-13.29-11.23-23.16c0-10.21,3.681-18.14,11.021-23.82
							c6.239-4.649,16.311-8.619,30.239-11.9c14.511-3.279,24.211-7.318,29.051-12.04c4.09-3.979,6.13-10.129,6.13-18.52
							c0-7.691-3.89-13.751-11.702-18.16c-6.439-3.75-13.729-5.601-21.849-5.601c-10.83,0-19.01,2.139-24.551,6.46
							c-6.21,4.649-9.72,12.069-10.51,22.258c-0.229,1.951-0.889,3.401-2.06,4.442c-1.01,0.898-2.289,1.308-3.77,1.188
							c-1.371-0.109-2.491-0.639-3.42-1.54c-1.14-1.13-1.6-2.609-1.369-4.409c1.13-13.171,5.779-22.872,13.93-29.101
							c7.458-5.919,18.17-8.879,32.099-8.879c12.331,0,22.6,3.009,30.73,9.019c8.85,6.362,13.261,14.86,13.261,25.51
							c0,10.88-3.221,19.271-9.691,25.16c-6.68,6.15-18.11,10.85-34.3,14.14c-12.338,2.491-20.899,5.77-25.659,9.831
							c-4.52,3.859-6.791,9.29-6.791,16.31c0,7.02,2.881,12.389,8.65,16.14c5.461,3.5,12.911,5.25,22.4,5.25
							c8.85,0,15.701-1.8,20.55-5.431c4.88-3.74,7.979-9.64,9.339-17.7c0.241-1.799,0.961-3.17,2.24-4.059
							c1.25-0.931,2.611-1.311,4.121-1.201c1.6,0.21,2.79,0.96,3.599,2.21c1.01,1.371,1.359,3.11,1.01,5.25
							c-1.359,8.391-4.64,15.15-9.86,20.261C5021.135,4284.447,5011.045,4287.868,4997.866,4287.869L4997.866,4287.869z
							 M5169.664,4285.089h-62.019c-5.191,0-9.279-1.721-12.21-5.11c-2.621-3.05-3.919-6.85-3.919-11.41v-92.34
							c0-4.43,1.299-8.18,3.919-11.23c2.931-3.389,7.02-5.1,12.242-5.1h64.25c1.688,0,3.049,0.521,4.059,1.53
							c0.901,0.93,1.361,2.009,1.361,3.259c0,1.361-0.46,2.491-1.361,3.42c-1.009,0.899-2.37,1.361-4.059,1.361h-62.332
							c-2.469,0-4.409,0.788-5.75,2.38c-1.13,1.34-1.708,3.048-1.708,5.079v42.861h61.609c1.679,0,3.05,0.53,4.059,1.539
							c0.901,0.93,1.361,2.01,1.361,3.25c0,1.37-0.46,2.5-1.361,3.43c-1.009,0.9-2.38,1.36-4.059,1.36h-61.609v38.479
							c0,2.151,0.579,3.92,1.708,5.28c1.341,1.6,3.281,2.38,5.75,2.38h60.07c1.561,0,2.871,0.521,3.88,1.54
							c0.911,0.931,1.371,2,1.371,3.25c0,1.36-0.46,2.49-1.371,3.419C5172.535,4284.618,5171.225,4285.088,5169.664,4285.089
							L5169.664,4285.089z M5222.685,4282.27v-106.06c0-4.411,1.311-8.161,3.91-11.211c2.93-3.389,7.029-5.1,12.22-5.1h54.18
							c1.691,0,3.05,0.521,4.069,1.53c0.891,0.93,1.361,2.009,1.361,3.259c0,1.361-0.47,2.491-1.361,3.42
							c-1.019,0.899-2.378,1.361-4.069,1.361h-52.229c-2.5,0-4.411,0.788-5.781,2.38c-1.13,1.369-1.679,3.048-1.679,5.109v105.31
							c0,1.799-0.58,3.219-1.71,4.24c-1.02,0.899-2.24,1.359-3.601,1.359c-1.479,0-2.729-0.46-3.77-1.359
							C5223.206,4285.488,5222.685,4284.069,5222.685,4282.27L5222.685,4282.27z M5378.455,4287.87
							c-13.249,0-23.701-2.72-31.298-8.15c-7.492-5.571-11.23-13.291-11.23-23.16c0-10.211,3.679-18.141,11.021-23.82
							c6.239-4.65,16.309-8.62,30.239-11.901c14.511-3.279,24.202-7.318,29.051-12.04c4.088-3.979,6.119-10.129,6.119-18.52
							c0-7.691-3.89-13.75-11.69-18.16c-6.449-3.75-13.729-5.601-21.849-5.601c-10.831,0-19.021,2.141-24.551,6.46
							c-6.22,4.649-9.729,12.071-10.51,22.26c-0.229,1.949-0.899,3.399-2.06,4.44c-1.02,0.9-2.289,1.31-3.77,1.19
							c-1.371-0.111-2.5-0.641-3.43-1.54c-1.13-1.13-1.59-2.611-1.359-4.411c1.13-13.169,5.77-22.872,13.93-29.101
							c7.451-5.919,18.159-8.879,32.089-8.879c12.341,0,22.61,3.009,30.73,9.021c8.86,6.36,13.271,14.858,13.271,25.508
							c0,10.88-3.221,19.271-9.701,25.16c-6.67,6.15-18.109,10.851-34.3,14.14c-12.331,2.491-20.89,5.771-25.649,9.831
							c-4.529,3.86-6.791,9.291-6.791,16.31s2.871,12.39,8.65,16.14c5.449,3.5,12.912,5.251,22.4,5.251
							c8.85,0,15.701-1.8,20.55-5.431c4.871-3.74,7.979-9.64,9.339-17.7c0.231-1.8,0.961-3.17,2.23-4.06
							c1.25-0.93,2.621-1.311,4.129-1.2c1.59,0.209,2.78,0.959,3.601,2.209c1.01,1.371,1.359,3.11,1.01,5.25
							c-1.359,8.391-4.64,15.15-9.869,20.26c-7.021,6.819-17.122,10.24-30.301,10.24"/>
					</g>
				</g>
			</g>
		</g>
	</g>
</g>
</svg>
