<?xml version="1.0" encoding="UTF-8" standalone="no"?>
<!-- Created with Inkscape (http://www.inkscape.org/) -->

<svg
   xmlns:dc="http://purl.org/dc/elements/1.1/"
   xmlns:cc="http://creativecommons.org/ns#"
   xmlns:rdf="http://www.w3.org/1999/02/22-rdf-syntax-ns#"
   xmlns:svg="http://www.w3.org/2000/svg"
   xmlns="http://www.w3.org/2000/svg"
   xmlns:sodipodi="http://sodipodi.sourceforge.net/DTD/sodipodi-0.dtd"
   xmlns:inkscape="http://www.inkscape.org/namespaces/inkscape"
   width="648.34003"
   height="139.81459"
   id="svg3336"
   version="1.1"
   inkscape:version="0.48.4 r9939"
   sodipodi:docname="logo.svg">
  <defs
     id="defs3338" />
  <sodipodi:namedview
     id="base"
     pagecolor="#ffffff"
     bordercolor="#666666"
     borderopacity="1.0"
     inkscape:pageopacity="0"
     inkscape:pageshadow="2"
     inkscape:zoom="1.979899"
     inkscape:cx="267.02065"
     inkscape:cy="73.162202"
     inkscape:document-units="px"
     inkscape:current-layer="g3369"
     showgrid="false"
     fit-margin-top="0"
     fit-margin-left="0"
     fit-margin-right="0"
     fit-margin-bottom="0"
     inkscape:window-width="1323"
     inkscape:window-height="747"
     inkscape:window-x="43"
     inkscape:window-y="21"
     inkscape:window-maximized="1" />
  <metadata
     id="metadata3341">
    <rdf:RDF>
      <cc:Work
         rdf:about="">
        <dc:format>image/svg+xml</dc:format>
        <dc:type
           rdf:resource="http://purl.org/dc/dcmitype/StillImage" />
        <dc:title />
      </cc:Work>
    </rdf:RDF>
  </metadata>
  <g
     inkscape:label="Layer 1"
     inkscape:groupmode="layer"
     id="layer1"
     transform="translate(-55.6878,-423.60989)">
    <g
       transform="matrix(0.50441805,0,0,-0.50441805,-2047.1283,2623.6041)"
       id="g3305">
      <g
         transform="matrix(0.99730749,0,0,0.99730749,12.588198,11.053303)"
         id="g3369">
        <path
           inkscape:connector-curvature="0"
           id="path78"
           style="fill:#231f20;fill-opacity:1;fill-rule:evenodd;stroke:none"
           d="m 4330.2719,4361.6277 c 76.54,0 138.59,-62.05 138.59,-138.59 0,-76.54 -62.05,-138.59 -138.59,-138.59 -76.53,0 -138.58,62.05 -138.58,138.59 0,76.54 62.05,138.59 138.58,138.59" />
        <path
           inkscape:connector-curvature="0"
           id="path82"
           style="fill:#ffffff;fill-opacity:1;fill-rule:evenodd;stroke:none"
           d="m 4277.5319,4111.4877 c -35.13,16.65 -61.15,49.4 -68.51,88.73 16.08,22.37 30.99,26.98 35.2,50.39 2.88,16 12.62,25.16 26.18,25.33 24.56,0.31 8.15,-12.16 36.22,-1.94 52.02,18.95 49.79,-4.21 79.9,-11.09 22.73,-5.2 34.4,17.84 41.06,-4.38 16.52,-55.04 -116.87,-88.96 -127.15,-96.06 l -22.9,-50.98" />
        <path
           inkscape:connector-curvature="0"
           id="path84"
           style="fill:#ffffff;fill-opacity:1;fill-rule:evenodd;stroke:none"
           d="m 4283.4819,4108.8695 c -10.25,4.21 -19.8,9.74 -28.45,16.41 -10.18,8.46 -19.29,18.15 -27.1,28.87 -3.48,5.15 -6.57,10.59 -9.25,16.26 7.01,7.35 12.43,14.22 14.68,26.67 2.75,15.26 12.02,24 24.96,24.17 23.41,0.29 7.77,-11.61 34.53,-1.86 49.6,18.07 47.47,-4.01 76.17,-10.57 21.68,-4.96 32.81,17.01 39.16,-4.17 15.74,-52.48 -111.43,-84.82 -121.23,-91.6 -1.59,-1.09 -2.72,-2.49 -3.47,-4.18" />
        <path
           inkscape:connector-curvature="0"
           id="path90"
           style="fill:#231f20;fill-opacity:1;fill-rule:evenodd;stroke:none"
           d="m 4289.3119,4106.6495 c -3.94,1.38 -7.79,2.97 -11.53,4.73 0.58,1.33 1.35,2.59 2.3,3.73 0.94,1.15 2.05,2.18 3.34,3.06 1.33,0.92 3.67,1.98 6.83,3.22 2.88,1.13 6.71,2.52 11.17,4.13 34.77,12.59 111.85,40.49 100.79,77.35 -0.85,2.83 -1.6,4.24 -2.35,4.72 -0.35,0.23 -1.09,0.09 -2.06,-0.19 -1.06,-0.32 -2.4,-0.83 -3.84,-1.38 l -0.22,-0.08 c -3.22,-1.24 -6.86,-2.64 -11.18,-3.45 -4.39,-0.83 -9.33,-1.02 -14.92,0.26 -10.27,2.34 -16.8,6.39 -22.87,10.14 l -0.1,0.06 -0.02,0.01 0,0.01 c -5.17,3.21 -9.97,6.16 -16.9,6.91 -7.28,0.79 -17.2,-0.66 -32.78,-6.34 -8.64,-3.14 -13.67,-4.27 -17.09,-4.25 l -0.01,0 c -4.25,0.04 -6.06,1.5 -8.31,3.31 -0.65,0.53 -1.42,1.15 -2.76,1.58 -1.66,0.54 -4.21,0.9 -8.41,0.85 -2.43,-0.03 -4.69,-0.46 -6.74,-1.26 -2,-0.79 -3.8,-1.96 -5.36,-3.46 -1.64,-1.59 -3.06,-3.59 -4.2,-5.96 -1.16,-2.41 -2.05,-5.22 -2.62,-8.36 -1.31,-7.3 -3.57,-12.9 -6.54,-17.75 -2.92,-4.77 -6.48,-8.73 -10.46,-12.86 l -0.82,-0.86 c -2.11,3.91 -4.01,7.95 -5.7,12.09 2.57,2.8 4.84,5.6 6.7,8.79 2.08,3.55 3.66,7.63 4.59,12.78 0.78,4.37 2.06,8.32 3.76,11.79 1.77,3.61 3.99,6.71 6.61,9.26 2.74,2.64 5.9,4.69 9.4,6.08 3.44,1.37 7.21,2.1 11.23,2.15 6.1,0.08 10.11,-0.61 12.94,-1.6 l 0,0 c 3.11,-1.08 4.75,-2.41 6.18,-3.56 1.02,-0.82 1.66,-1.33 13.37,2.94 17.96,6.54 29.76,8.13 38.75,7.09 9.26,-1.07 15.28,-4.8 21.81,-8.85 2.63,-1.63 5.37,-3.33 8.49,-4.84 3.04,-1.48 6.49,-2.81 10.63,-3.76 7.42,-1.69 13.79,0.75 18.88,2.7 l 0.02,0 c 0.66,0.26 1.32,0.51 2.45,0.92 l 0.01,0 c 0.91,0.33 1.76,0.62 2.47,0.83 4.35,1.3 8.18,1.64 11.77,-0.35 3.37,-1.86 6.08,-5.67 8.14,-12.56 7.33,-24.43 -10.8,-44.37 -35.66,-59.93 -23.9,-14.95 -54.08,-25.88 -72.84,-32.67 -4.24,-1.53 -7.89,-2.85 -10.47,-3.85 -2.5,-0.97 -4.17,-1.66 -4.7,-2.03 -0.28,-0.2 -0.54,-0.44 -0.77,-0.7 l -0.01,0 c -0.14,-0.18 -0.27,-0.38 -0.39,-0.59" />
        <path
           inkscape:connector-curvature="0"
           id="path172"
           style="fill:#ffffff;fill-opacity:1;fill-rule:nonzero;stroke:none"
           d="m 4330.2719,4346.3377 c 34.07,0 64.91,-13.8 87.24,-36.11 22.32,-22.31 36.13,-53.14 36.13,-87.19 0,-34.05 -13.81,-64.87 -36.13,-87.19 -22.33,-22.31 -53.17,-36.11 -87.24,-36.11 -34.06,0 -64.9,13.8 -87.23,36.11 -22.32,22.32 -36.13,53.14 -36.13,87.19 0,34.05 13.81,64.88 36.13,87.19 22.33,22.31 53.17,36.11 87.23,36.11 z m 81.95,-41.39 c -20.97,20.96 -49.94,33.92 -81.95,33.92 -32,0 -60.97,-12.96 -81.94,-33.92 -20.97,-20.96 -33.95,-49.92 -33.95,-81.91 0,-31.98 12.98,-60.95 33.95,-81.91 20.97,-20.96 49.94,-33.92 81.94,-33.92 32.01,0 60.98,12.96 81.95,33.92 20.97,20.96 33.95,49.93 33.95,81.91 0,31.99 -12.98,60.95 -33.95,81.91" />
        <path
           sodipodi:nodetypes="ccccccscccsccccscccccccsscsscsscscsscscscscscscsscscscccccccccccccccccccccsccscscccscscccccccscscccscscccccccssscsscsscscsscscscscscscsscscssscsscscsscsscscsccscccscscccccccscscccscscccccccc"
           inkscape:connector-curvature="0"
           id="path198"
           style="fill:#ffffff;fill-opacity:0.60126585;fill-rule:nonzero;stroke:none"
           d="m 4503.0127,4280.7366 32.65,-117.85 c 1.04,-3.87 3.19,-5.84 6.47,-5.95 3.28,0 5.6,1.97 6.96,5.95 l 27.72,106.27 27.89,-106.1 c 1.02,-4.09 3.19,-6.12 6.47,-6.12 3.39,0 5.6,2.03 6.62,6.12 l 32.64,117.68 c 0.35,1.79 0.12,3.39 -0.66,4.75 -0.79,1.13 -1.92,1.86 -3.4,2.21 -1.48,0.35 -2.78,0.17 -3.92,-0.52 -1.48,-0.79 -2.38,-2.09 -2.73,-3.89 l -28.9,-102.88 -26.35,101.86 c -1.02,3.75 -3.63,5.6 -7.8,5.6 -4.1,0 -6.65,-1.85 -7.66,-5.6 l -26.36,-101.86 -29.25,103.37 c -0.47,1.6 -1.31,2.73 -2.55,3.4 -1.25,0.69 -2.56,0.87 -3.92,0.52 -1.48,-0.23 -2.61,-0.9 -3.4,-2.03 -0.78,-1.37 -0.95,-3.02 -0.52,-4.93 z m 268.21,4.35 -62.02,0 c -5.19,0 -9.29,-1.72 -12.22,-5.11 -2.61,-3.05 -3.92,-6.85 -3.92,-11.41 l 0,-92.34 c 0,-4.43 1.31,-8.18 3.92,-11.23 2.93,-3.39 7.03,-5.1 12.25,-5.1 l 64.25,0 c 1.68,0 3.04,0.52 4.06,1.53 0.9,0.93 1.36,2.01 1.36,3.26 0,1.36 -0.46,2.49 -1.36,3.42 -1.02,0.9 -2.38,1.36 -4.06,1.36 l -62.34,0 c -2.46,0 -4.41,0.79 -5.74,2.38 -1.13,1.34 -1.72,3.05 -1.72,5.08 l 0,42.86 46.0537,0 c 1.69,0 3.05,0.53 4.07,1.54 0.9,0.93 1.36,2.01 1.36,3.25 0,1.37 -0.46,2.5 -1.36,3.43 -1.02,0.9 -2.38,1.36 -4.07,1.36 l -46.0537,0 0,38.48 c 0,2.15 0.59,3.92 1.72,5.28 1.33,1.6 3.28,2.38 5.74,2.38 l 60.08,0 c 1.56,0 2.87,0.52 3.88,1.54 0.9,0.93 1.37,2 1.37,3.25 0,1.36 -0.47,2.49 -1.37,3.42 -1.01,0.9 -2.32,1.37 -3.88,1.37 z m 68.95,-74.88 23.65,64.63 0.49,0 23.48,-64.63 z m 14.13,69.65 -42.02,-115.26 c -0.78,-1.83 -0.85,-3.4 -0.15,-4.76 0.67,-1.36 1.69,-2.26 3.05,-2.73 1.36,-0.46 2.67,-0.35 3.92,0.35 1.48,0.78 2.55,2.03 3.22,3.74 l 14.45,39.61 54.59,0 14.27,-39.61 c 0.7,-1.71 1.71,-2.96 3.08,-3.74 1.36,-0.58 2.7,-0.64 4.06,-0.18 1.37,0.47 2.32,1.31 2.9,2.56 0.67,1.48 0.73,3.05 0.18,4.76 l -24.1403,65.9808 -18.0297,49.2792 c -0.92,2.62 -2.26,4.62 -4.09,5.98 -1.71,1.25 -3.51,1.86 -5.42,1.86 -2.18,0 -4.1,-0.61 -5.81,-1.86 -1.8,-1.36 -3.16,-3.36 -4.06,-5.98 z m 143.56,8.01 c -13.26,0 -23.71,-2.72 -31.31,-8.15 -7.49,-5.57 -11.23,-13.29 -11.23,-23.16 0,-10.21 3.68,-18.14 11.02,-23.82 6.24,-4.65 16.31,-8.62 30.24,-11.9 14.51,-3.28 24.21,-7.32 29.05,-12.04 4.09,-3.98 6.13,-10.13 6.13,-18.52 0,-7.69 -3.89,-13.75 -11.7,-18.16 -6.44,-3.75 -13.73,-5.6 -21.85,-5.6 -10.83,0 -19.01,2.14 -24.55,6.46 -6.21,4.65 -9.72,12.07 -10.51,22.26 -0.23,1.95 -0.89,3.4 -2.06,4.44 -1.01,0.9 -2.29,1.31 -3.77,1.19 -1.37,-0.11 -2.49,-0.64 -3.42,-1.54 -1.14,-1.13 -1.6,-2.61 -1.37,-4.41 1.13,-13.17 5.78,-22.87 13.93,-29.1 7.46,-5.92 18.17,-8.88 32.1,-8.88 12.33,0 22.6,3.01 30.73,9.02 8.85,6.36 13.26,14.86 13.26,25.51 0,10.88 -3.22,19.27 -9.69,25.16 -6.68,6.15 -18.11,10.85 -34.3,14.14 -12.34,2.49 -20.9,5.77 -25.66,9.83 -4.52,3.86 -6.79,9.29 -6.79,16.31 0,7.02 2.88,12.39 8.65,16.14 5.46,3.5 12.91,5.25 22.4,5.25 8.85,0 15.7,-1.8 20.55,-5.43 4.88,-3.74 7.98,-9.64 9.34,-17.7 0.24,-1.8 0.96,-3.17 2.24,-4.06 1.25,-0.93 2.61,-1.31 4.12,-1.2 1.6,0.21 2.79,0.96 3.6,2.21 1.01,1.37 1.36,3.11 1.01,5.25 -1.36,8.39 -4.64,15.15 -9.86,20.26 -7.03,6.82 -17.12,10.24 -30.3,10.24 z m 171.8,-2.78 -62.02,0 c -5.19,0 -9.28,-1.72 -12.21,-5.11 -2.62,-3.05 -3.92,-6.85 -3.92,-11.41 l 0,-92.34 c 0,-4.43 1.3,-8.18 3.92,-11.23 2.93,-3.39 7.02,-5.1 12.24,-5.1 l 64.25,0 c 1.69,0 3.05,0.52 4.06,1.53 0.9,0.93 1.36,2.01 1.36,3.26 0,1.36 -0.46,2.49 -1.36,3.42 -1.01,0.9 -2.37,1.36 -4.06,1.36 l -62.33,0 c -2.47,0 -4.41,0.79 -5.75,2.38 -1.13,1.34 -1.71,3.05 -1.71,5.08 l 0,42.86 61.61,0 c 1.68,0 3.05,0.53 4.06,1.54 0.9,0.93 1.36,2.01 1.36,3.25 0,1.37 -0.46,2.5 -1.36,3.43 -1.01,0.9 -2.38,1.36 -4.06,1.36 l -61.61,0 0,38.48 c 0,2.15 0.58,3.92 1.71,5.28 1.34,1.6 3.28,2.38 5.75,2.38 l 60.07,0 c 1.56,0 2.87,0.52 3.88,1.54 0.91,0.93 1.37,2 1.37,3.25 0,1.36 -0.46,2.49 -1.37,3.42 -1.01,0.9 -2.32,1.37 -3.88,1.37 z m 53.02,-2.82 0,-106.06 c 0,-4.41 1.31,-8.16 3.91,-11.21 2.93,-3.39 7.03,-5.1 12.22,-5.1 l 54.18,0 c 1.69,0 3.05,0.52 4.07,1.53 0.89,0.93 1.36,2.01 1.36,3.26 0,1.36 -0.47,2.49 -1.36,3.42 -1.02,0.9 -2.38,1.36 -4.07,1.36 l -52.23,0 c -2.5,0 -4.41,0.79 -5.78,2.38 -1.13,1.37 -1.68,3.05 -1.68,5.11 l 0,105.31 c 0,1.8 -0.58,3.22 -1.71,4.24 -1.02,0.9 -2.24,1.36 -3.6,1.36 -1.48,0 -2.73,-0.46 -3.77,-1.36 -1.02,-1.02 -1.54,-2.44 -1.54,-4.24 z m 155.77,5.6 c -13.25,0 -23.7,-2.72 -31.3,-8.15 -7.49,-5.57 -11.23,-13.29 -11.23,-23.16 0,-10.21 3.68,-18.14 11.02,-23.82 6.24,-4.65 16.31,-8.62 30.24,-11.9 14.51,-3.28 24.2,-7.32 29.05,-12.04 4.09,-3.98 6.12,-10.13 6.12,-18.52 0,-7.69 -3.89,-13.75 -11.69,-18.16 -6.45,-3.75 -13.73,-5.6 -21.85,-5.6 -10.83,0 -19.02,2.14 -24.55,6.46 -6.22,4.65 -9.73,12.07 -10.51,22.26 -0.23,1.95 -0.9,3.4 -2.06,4.44 -1.02,0.9 -2.29,1.31 -3.77,1.19 -1.37,-0.11 -2.5,-0.64 -3.43,-1.54 -1.13,-1.13 -1.59,-2.61 -1.36,-4.41 1.13,-13.17 5.77,-22.87 13.93,-29.1 7.45,-5.92 18.16,-8.88 32.09,-8.88 12.34,0 22.61,3.01 30.73,9.02 8.86,6.36 13.27,14.86 13.27,25.51 0,10.88 -3.22,19.27 -9.7,25.16 -6.67,6.15 -18.11,10.85 -34.3,14.14 -12.33,2.49 -20.89,5.77 -25.65,9.83 -4.53,3.86 -6.79,9.29 -6.79,16.31 0,7.02 2.87,12.39 8.65,16.14 5.45,3.5 12.91,5.25 22.4,5.25 8.85,0 15.7,-1.8 20.55,-5.43 4.87,-3.74 7.98,-9.64 9.34,-17.7 0.23,-1.8 0.96,-3.17 2.23,-4.06 1.25,-0.93 2.62,-1.31 4.13,-1.2 1.59,0.21 2.78,0.96 3.6,2.21 1.01,1.37 1.36,3.11 1.01,5.25 -1.36,8.39 -4.64,15.15 -9.87,20.26 -7.02,6.82 -17.12,10.24 -30.3,10.24" />
      </g>
    </g>
  </g>
</svg>
